<svg width="187" height="23" viewBox="0 0 187 23" fill="none" xmlns="http://www.w3.org/2000/svg">
<path d="M11.8629 11.618C13.0036 11.8307 13.9412 12.401 14.6759 13.329C15.4106 14.257 15.7779 15.3203 15.7779 16.519C15.7779 17.6017 15.5072 18.5587 14.9659 19.39C14.4439 20.202 13.6802 20.84 12.6749 21.304C11.6696 21.768 10.4806 22 9.10791 22H0.378906V1.758H8.73091C10.1036 1.758 11.2829 1.98033 12.2689 2.425C13.2742 2.86967 14.0282 3.48833 14.5309 4.281C15.0529 5.07367 15.3139 5.97267 15.3139 6.978C15.3139 8.15733 14.9949 9.14333 14.3569 9.936C13.7382 10.7287 12.9069 11.2893 11.8629 11.618ZM4.43891 10.11H8.15091C9.11757 10.11 9.86191 9.89733 10.3839 9.472C10.9059 9.02733 11.1669 8.399 11.1669 7.587C11.1669 6.775 10.9059 6.14667 10.3839 5.702C9.86191 5.25733 9.11757 5.035 8.15091 5.035H4.43891V10.11ZM8.52791 18.694C9.51391 18.694 10.2776 18.462 10.8189 17.998C11.3796 17.534 11.6599 16.8767 11.6599 16.026C11.6599 15.156 11.3699 14.4793 10.7899 13.996C10.2099 13.4933 9.42691 13.242 8.44091 13.242H4.43891V18.694H8.52791Z" fill="#FF7A00"/>
<path d="M26.1477 22.261C24.601 22.261 23.209 21.9227 21.9717 21.246C20.7343 20.55 19.758 19.5737 19.0427 18.317C18.3467 17.0603 17.9987 15.6103 17.9987 13.967C17.9987 12.3237 18.3563 10.8737 19.0717 9.617C19.8063 8.36033 20.802 7.39367 22.0587 6.717C23.3153 6.021 24.717 5.673 26.2637 5.673C27.8103 5.673 29.212 6.021 30.4687 6.717C31.7253 7.39367 32.7113 8.36033 33.4267 9.617C34.1613 10.8737 34.5287 12.3237 34.5287 13.967C34.5287 15.6103 34.1517 17.0603 33.3977 18.317C32.663 19.5737 31.6577 20.55 30.3817 21.246C29.125 21.9227 27.7137 22.261 26.1477 22.261ZM26.1477 18.723C26.8823 18.723 27.5687 18.549 28.2067 18.201C28.864 17.8337 29.386 17.2923 29.7727 16.577C30.1593 15.8617 30.3527 14.9917 30.3527 13.967C30.3527 12.4397 29.9467 11.27 29.1347 10.458C28.342 9.62667 27.3657 9.211 26.2057 9.211C25.0457 9.211 24.0693 9.62667 23.2767 10.458C22.5033 11.27 22.1167 12.4397 22.1167 13.967C22.1167 15.4943 22.4937 16.6737 23.2477 17.505C24.021 18.317 24.9877 18.723 26.1477 18.723Z" fill="#FF7A00"/>
<path d="M44.6408 22.261C43.0942 22.261 41.7022 21.9227 40.4648 21.246C39.2275 20.55 38.2512 19.5737 37.5358 18.317C36.8398 17.0603 36.4918 15.6103 36.4918 13.967C36.4918 12.3237 36.8495 10.8737 37.5648 9.617C38.2995 8.36033 39.2952 7.39367 40.5518 6.717C41.8085 6.021 43.2102 5.673 44.7568 5.673C46.3035 5.673 47.7052 6.021 48.9618 6.717C50.2185 7.39367 51.2045 8.36033 51.9198 9.617C52.6545 10.8737 53.0218 12.3237 53.0218 13.967C53.0218 15.6103 52.6448 17.0603 51.8908 18.317C51.1562 19.5737 50.1508 20.55 48.8748 21.246C47.6182 21.9227 46.2068 22.261 44.6408 22.261ZM44.6408 18.723C45.3755 18.723 46.0618 18.549 46.6998 18.201C47.3572 17.8337 47.8792 17.2923 48.2658 16.577C48.6525 15.8617 48.8458 14.9917 48.8458 13.967C48.8458 12.4397 48.4398 11.27 47.6278 10.458C46.8352 9.62667 45.8588 9.211 44.6988 9.211C43.5388 9.211 42.5625 9.62667 41.7698 10.458C40.9965 11.27 40.6098 12.4397 40.6098 13.967C40.6098 15.4943 40.9868 16.6737 41.7408 17.505C42.5142 18.317 43.4808 18.723 44.6408 18.723Z" fill="#FF7A00"/>
<path d="M65.512 22L60.06 15.156V22H56V0.540001H60.06V12.749L65.454 5.934H70.732L63.656 13.996L70.79 22H65.512Z" fill="#FF7A00"/>
<path d="M86.9797 22.261C85.433 22.261 84.041 21.9227 82.8037 21.246C81.5664 20.55 80.59 19.5737 79.8747 18.317C79.1787 17.0603 78.8307 15.6103 78.8307 13.967C78.8307 12.3237 79.1884 10.8737 79.9037 9.617C80.6384 8.36033 81.634 7.39367 82.8907 6.717C84.1474 6.021 85.549 5.673 87.0957 5.673C88.6424 5.673 90.044 6.021 91.3007 6.717C92.5574 7.39367 93.5434 8.36033 94.2587 9.617C94.9934 10.8737 95.3607 12.3237 95.3607 13.967C95.3607 15.6103 94.9837 17.0603 94.2297 18.317C93.495 19.5737 92.4897 20.55 91.2137 21.246C89.957 21.9227 88.5457 22.261 86.9797 22.261ZM86.9797 18.723C87.7144 18.723 88.4007 18.549 89.0387 18.201C89.696 17.8337 90.218 17.2923 90.6047 16.577C90.9914 15.8617 91.1847 14.9917 91.1847 13.967C91.1847 12.4397 90.7787 11.27 89.9667 10.458C89.174 9.62667 88.1977 9.211 87.0377 9.211C85.8777 9.211 84.9014 9.62667 84.1087 10.458C83.3354 11.27 82.9487 12.4397 82.9487 13.967C82.9487 15.4943 83.3257 16.6737 84.0797 17.505C84.853 18.317 85.8197 18.723 86.9797 18.723Z" fill="#FF7A00"/>
<path d="M97.5559 3.382C97.5559 2.802 97.7589 2.338 98.1649 1.99C98.5709 1.62267 99.0832 1.439 99.7019 1.439C100.475 1.439 101.084 1.68067 101.529 2.164C101.974 2.64733 102.196 3.266 102.196 4.02C102.196 4.832 102.061 5.51833 101.79 6.079C101.539 6.62033 101.22 7.07467 100.833 7.442C100.466 7.80933 100.079 8.09933 99.6729 8.312C99.2862 8.50533 98.9479 8.64067 98.6579 8.718L97.6429 7.007C98.0682 6.85233 98.4355 6.63967 98.7449 6.369C99.0542 6.079 99.2282 5.71167 99.2669 5.267C98.8609 5.30567 98.4742 5.16067 98.1069 4.832C97.7395 4.50333 97.5559 4.02 97.5559 3.382Z" fill="#FF7A00"/>
<path d="M104.433 11.85C104.433 9.85867 104.878 8.08 105.767 6.514C106.676 4.92867 107.903 3.701 109.45 2.831C111.016 1.94167 112.766 1.497 114.699 1.497C116.961 1.497 118.943 2.077 120.644 3.237C122.345 4.397 123.534 6.00167 124.211 8.051H119.542C119.078 7.08433 118.421 6.35933 117.57 5.876C116.739 5.39267 115.772 5.151 114.67 5.151C113.491 5.151 112.437 5.43133 111.509 5.992C110.6 6.53333 109.885 7.30667 109.363 8.312C108.86 9.31733 108.609 10.4967 108.609 11.85C108.609 13.184 108.86 14.3633 109.363 15.388C109.885 16.3933 110.6 17.1763 111.509 17.737C112.437 18.2783 113.491 18.549 114.67 18.549C115.772 18.549 116.739 18.3073 117.57 17.824C118.421 17.3213 119.078 16.5867 119.542 15.62H124.211C123.534 17.6887 122.345 19.303 120.644 20.463C118.962 21.6037 116.98 22.174 114.699 22.174C112.766 22.174 111.016 21.739 109.45 20.869C107.903 19.9797 106.676 18.752 105.767 17.186C104.878 15.62 104.433 13.8413 104.433 11.85Z" fill="#FF7A00"/>
<path d="M131.739 0.540001V22H127.679V0.540001H131.739Z" fill="#FF7A00"/>
<path d="M142.884 22.261C141.337 22.261 139.945 21.9227 138.708 21.246C137.471 20.55 136.494 19.5737 135.779 18.317C135.083 17.0603 134.735 15.6103 134.735 13.967C134.735 12.3237 135.093 10.8737 135.808 9.617C136.543 8.36033 137.538 7.39367 138.795 6.717C140.052 6.021 141.453 5.673 143 5.673C144.547 5.673 145.948 6.021 147.205 6.717C148.462 7.39367 149.448 8.36033 150.163 9.617C150.898 10.8737 151.265 12.3237 151.265 13.967C151.265 15.6103 150.888 17.0603 150.134 18.317C149.399 19.5737 148.394 20.55 147.118 21.246C145.861 21.9227 144.45 22.261 142.884 22.261ZM142.884 18.723C143.619 18.723 144.305 18.549 144.943 18.201C145.6 17.8337 146.122 17.2923 146.509 16.577C146.896 15.8617 147.089 14.9917 147.089 13.967C147.089 12.4397 146.683 11.27 145.871 10.458C145.078 9.62667 144.102 9.211 142.942 9.211C141.782 9.211 140.806 9.62667 140.013 10.458C139.24 11.27 138.853 12.4397 138.853 13.967C138.853 15.4943 139.23 16.6737 139.984 17.505C140.757 18.317 141.724 18.723 142.884 18.723Z" fill="#FF7A00"/>
<path d="M153.199 13.967C153.199 12.3043 153.537 10.8543 154.214 9.617C154.891 8.36033 155.828 7.39367 157.027 6.717C158.226 6.021 159.598 5.673 161.145 5.673C163.136 5.673 164.78 6.17567 166.075 7.181C167.39 8.167 168.269 9.559 168.714 11.357H164.335C164.103 10.661 163.707 10.1197 163.146 9.733C162.605 9.327 161.928 9.124 161.116 9.124C159.956 9.124 159.038 9.54933 158.361 10.4C157.684 11.2313 157.346 12.4203 157.346 13.967C157.346 15.4943 157.684 16.6833 158.361 17.534C159.038 18.3653 159.956 18.781 161.116 18.781C162.759 18.781 163.832 18.0463 164.335 16.577H168.714C168.269 18.317 167.39 19.6993 166.075 20.724C164.76 21.7487 163.117 22.261 161.145 22.261C159.598 22.261 158.226 21.9227 157.027 21.246C155.828 20.55 154.891 19.5833 154.214 18.346C153.537 17.0893 153.199 15.6297 153.199 13.967Z" fill="#FF7A00"/>
<path d="M181.2 22L175.748 15.156V22H171.688V0.540001H175.748V12.749L181.142 5.934H186.42L179.344 13.996L186.478 22H181.2Z" fill="#FF7A00"/>
</svg>
